<svg width="64" height="64" viewBox="0 0 64 64" fill="none" xmlns="http://www.w3.org/2000/svg">
  <defs>
    <linearGradient id="bg" x1="6" y1="6" x2="58" y2="58" gradientUnits="userSpaceOnUse">
      <stop stop-color="#1D4ED8"/>
      <stop offset="1" stop-color="#0EA5E9"/>
    </linearGradient>
    <linearGradient id="v" x1="20" y1="18" x2="32" y2="44" gradientUnits="userSpaceOnUse">
      <stop stop-color="#FFFFFF"/>
      <stop offset="1" stop-color="#DBEAFE"/>
    </linearGradient>
    <linearGradient id="link" x1="34" y1="22" x2="48" y2="40" gradientUnits="userSpaceOnUse">
      <stop stop-color="#E0F2FE"/>
      <stop offset="1" stop-color="#FFFFFF"/>
    </linearGradient>
  </defs>

  <rect x="4" y="4" width="56" height="56" rx="14" fill="url(#bg)"/>
  <path d="M14 12H50V13.5H14V12Z" fill="#93C5FD" fill-opacity="0.55"/>
  <path d="M18 22H26.5L32 38L37.5 22H46L34.5 46H29.5L18 22Z" fill="url(#v)"/>
  <path d="M39.5 23.5C35.63 23.5 32.5 26.63 32.5 30.5C32.5 34.37 35.63 37.5 39.5 37.5H45V33.8H39.5C37.67 33.8 36.2 32.33 36.2 30.5C36.2 28.67 37.67 27.2 39.5 27.2H45V23.5H39.5Z" fill="url(#link)"/>
  <path d="M22 52H42V54H22V52Z" fill="#BFDBFE" fill-opacity="0.7"/>
</svg>
